<svg width="1446" height="927" viewBox="0 0 1446 927" fill="none" xmlns="http://www.w3.org/2000/svg">
<path d="M1177.09 906.736L1177.09 782.343C1177.12 756.526 1170.19 731.177 1157.02 708.967C1144.56 687.95 1127.02 670.405 1105.99 657.95C1083.78 644.786 1058.43 637.855 1032.62 637.887H807.855L807.855 657.95L888.127 657.95L888.127 906.736L807.855 906.736L807.855 926.8L1177.11 926.8L1177.09 906.736ZM908.179 657.95H959.248C938.225 670.405 920.677 687.95 908.219 708.967L908.179 657.95ZM908.179 773.981C912.273 712.442 961.239 662.974 1022.57 658.071L1022.57 756.261C1022.57 758.921 1023.62 761.473 1025.51 763.354C1027.39 765.236 1029.94 766.293 1032.6 766.293C1035.26 766.293 1037.81 765.236 1039.7 763.354C1041.58 761.473 1042.63 758.921 1042.63 756.261L1042.63 658.079C1103.96 662.982 1152.93 712.451 1157.02 773.989C1157.21 776.75 1157.3 779.542 1157.3 782.351C1157.3 785.16 1157.21 787.969 1157.02 790.714C1152.9 852.814 1103.08 902.619 1040.96 906.744C1038.2 906.929 1035.41 907.025 1032.6 907.025C1029.79 907.025 1026.98 906.929 1024.24 906.744C962.122 902.619 912.305 852.814 908.179 790.714C907.994 787.953 907.898 785.16 907.898 782.351C907.898 779.542 907.994 776.742 908.179 773.981ZM908.179 855.719C920.637 876.737 938.185 894.281 959.208 906.736L908.179 906.736L908.179 855.719ZM1105.99 906.736C1127.02 894.281 1144.56 876.737 1157.02 855.719L1157.02 906.736L1105.99 906.736Z" fill="#FD7B9A"/>
<path d="M907.352 782.544C907.383 756.726 900.451 731.378 887.284 709.168C874.827 688.15 857.278 670.606 836.256 658.151C814.047 644.988 788.698 638.057 762.879 638.088H538.118L538.118 658.151L618.39 658.151L618.39 906.937L538.118 906.937L538.118 927L907.368 927L907.352 782.544ZM638.442 658.151H689.471C668.448 670.606 650.899 688.15 638.442 709.168L638.442 658.151ZM638.442 774.181C642.536 712.643 691.501 663.175 752.829 658.271L752.829 756.462C752.829 759.122 753.886 761.674 755.768 763.555C757.65 765.436 760.202 766.493 762.863 766.493C765.524 766.493 768.076 765.436 769.958 763.555C771.84 761.674 772.897 759.122 772.897 756.462L772.897 658.271C834.225 663.175 883.19 712.643 887.284 774.182C887.469 776.942 887.565 779.735 887.565 782.544C887.565 785.353 887.469 788.162 887.284 790.906C883.158 853.007 833.342 902.812 771.227 906.937C768.466 907.121 765.673 907.218 762.863 907.218C760.054 907.218 757.244 907.121 754.499 906.937C692.384 902.812 642.568 853.006 638.442 790.906C638.257 788.146 638.161 785.353 638.161 782.544C638.161 779.735 638.257 776.942 638.442 774.181ZM638.442 855.92C650.899 876.937 668.448 894.482 689.471 906.937L638.442 906.937L638.442 855.92ZM836.256 906.937C857.278 894.482 874.827 876.937 887.284 855.92L887.284 906.937L836.256 906.937Z" fill="#FD7B9A"/>
<path d="M269.192 782.544C269.16 808.362 276.093 833.71 289.26 855.92C301.717 876.937 319.266 894.482 340.288 906.937C362.5 920.094 387.847 927.024 413.665 927L638.426 927L638.426 906.937L558.154 906.937L558.154 658.151H638.426L638.426 638.088L269.176 638.088L269.192 782.544ZM538.102 906.937L487.073 906.937C508.096 894.482 525.644 876.937 538.102 855.92L538.102 906.937ZM538.102 790.906C534.008 852.445 485.042 901.913 423.715 906.816L423.715 808.626C423.715 805.966 422.658 803.414 420.776 801.533C418.894 799.652 416.342 798.595 413.681 798.595C411.02 798.595 408.467 799.652 406.586 801.533C404.704 803.414 403.647 805.966 403.647 808.626L403.647 906.816C342.319 901.913 293.353 852.445 289.26 790.906C289.075 788.146 288.979 785.353 288.979 782.544C288.979 779.735 289.075 776.926 289.26 774.181C293.385 712.081 343.202 662.276 405.316 658.151C408.078 657.966 410.871 657.87 413.681 657.87C416.49 657.87 419.3 657.966 422.045 658.151C484.159 662.276 533.976 712.081 538.102 774.182C538.287 776.942 538.383 779.735 538.383 782.544C538.383 785.353 538.287 788.146 538.102 790.906ZM538.102 709.168C525.644 688.15 508.096 670.606 487.073 658.151H538.102L538.102 709.168ZM340.288 658.151C319.266 670.606 301.717 688.15 289.26 709.168L289.26 658.151H340.288Z" fill="#FD7B9A"/>
<path d="M907.352 512.74C907.383 486.922 900.451 461.574 887.284 439.364C874.827 418.346 857.278 400.801 836.256 388.347C814.044 375.19 788.697 368.259 762.879 368.283H538.118L538.118 388.347H618.39L618.39 637.133L538.118 637.133L538.118 657.196L907.368 657.196L907.352 512.74ZM638.442 388.347H689.471C668.448 400.801 650.899 418.346 638.442 439.364L638.442 388.347ZM638.442 504.377C642.536 442.839 691.501 393.371 752.829 388.467L752.829 486.657C752.829 489.318 753.886 491.869 755.768 493.751C757.65 495.632 760.202 496.689 762.863 496.689C765.524 496.689 768.076 495.632 769.958 493.751C771.84 491.869 772.897 489.318 772.897 486.657L772.897 388.467C834.225 393.371 883.19 442.839 887.284 504.377C887.469 507.138 887.565 509.931 887.565 512.74C887.565 515.549 887.469 518.357 887.284 521.102C883.158 583.202 833.342 633.008 771.227 637.133C768.466 637.317 765.673 637.413 762.863 637.413C760.054 637.413 757.244 637.317 754.499 637.133C692.384 633.008 642.568 583.202 638.442 521.102C638.257 518.341 638.161 515.549 638.161 512.74C638.161 509.931 638.257 507.138 638.442 504.377ZM638.442 586.115C650.899 607.133 668.448 624.678 689.471 637.133H638.442L638.442 586.115ZM836.256 637.133C857.278 624.678 874.827 607.133 887.284 586.115L887.284 637.133H836.256Z" fill="#FD7B9A"/>
<path d="M413.681 368.484C387.857 368.453 362.503 375.384 340.288 388.547C319.266 401.002 301.717 418.547 289.26 439.565C276.1 461.771 269.167 487.113 269.192 512.924L269.192 737.634H289.26L289.26 657.381H538.102L538.102 737.634H558.17L558.17 368.468L413.681 368.484ZM289.26 637.333L289.26 586.316C301.717 607.334 319.266 624.879 340.288 637.333H289.26ZM405.316 637.333C343.764 633.24 294.284 584.286 289.38 522.972H387.592C390.254 522.972 392.806 521.915 394.688 520.034C396.569 518.152 397.626 515.601 397.626 512.94C397.626 510.28 396.569 507.728 394.688 505.847C392.806 503.966 390.254 502.909 387.592 502.909H289.38C294.284 441.595 343.764 392.64 405.316 388.547C408.078 388.363 410.871 388.266 413.681 388.266C416.49 388.266 419.3 388.363 422.045 388.547C484.159 392.672 533.976 442.478 538.102 504.578C538.287 507.339 538.383 510.131 538.383 512.94C538.383 515.749 538.287 518.558 538.102 521.303C533.976 583.443 484.159 633.2 422.045 637.333C419.284 637.518 416.49 637.614 413.681 637.614C410.871 637.614 408.078 637.518 405.316 637.333ZM487.073 637.333C508.096 624.879 525.644 607.334 538.102 586.316L538.102 637.333H487.073ZM538.102 439.565C525.644 418.547 508.096 401.002 487.073 388.547H538.102L538.102 439.565Z" fill="#FD7B9A"/>
<path d="M0.000125011 512.94C-0.0310196 538.758 6.90157 564.106 20.068 586.316C32.5256 607.334 50.0743 624.878 71.0968 637.333C93.3059 650.496 118.655 657.428 144.473 657.397L369.25 657.397L369.25 637.333H288.979L288.979 388.547H369.25L369.25 368.484L0.000126037 368.484L0.000125011 512.94ZM268.911 637.333L217.882 637.333C238.904 624.878 256.453 607.334 268.911 586.316L268.911 637.333ZM268.911 521.303C264.817 582.841 215.851 632.309 154.523 637.213L154.523 539.023C154.523 536.362 153.466 533.81 151.584 531.929C149.703 530.048 147.151 528.991 144.489 528.991C141.828 528.991 139.276 530.048 137.394 531.929C135.513 533.81 134.455 536.362 134.455 539.023L134.455 637.213C73.1277 632.309 24.162 582.841 20.0681 521.303C19.8835 518.542 19.7871 515.749 19.7871 512.94C19.7871 510.131 19.8835 507.322 20.0681 504.578C24.1941 442.478 74.0107 392.672 136.125 388.547C138.886 388.363 141.68 388.266 144.489 388.266C147.299 388.266 150.108 388.363 152.854 388.547C214.968 392.672 264.785 442.478 268.911 504.578C269.095 507.339 269.192 510.131 269.192 512.94C269.192 515.749 269.095 518.542 268.911 521.303ZM268.911 439.564C256.453 418.547 238.904 401.002 217.882 388.547H268.911L268.911 439.564ZM71.0968 388.547C50.0743 401.002 32.5257 418.547 20.0681 439.564L20.0681 388.547H71.0968Z" fill="#FD7B9A"/>
<path d="M144.49 0.000183105C118.666 -0.0309542 93.3119 6.90011 71.0971 20.0635C50.0745 32.5183 32.5258 50.063 20.0682 71.0807C6.89923 93.2894 -0.0336676 118.638 0.000249698 144.456L0.000248102 369.166H20.0682L20.0682 288.913H268.911L268.911 369.166H288.979L288.979 0.000183105H144.49ZM20.0682 268.849L20.0682 217.832C32.5258 238.85 50.0744 256.395 71.0969 268.849H20.0682ZM136.125 268.849C74.5727 264.756 25.0932 215.802 20.1886 154.488H118.401C121.062 154.488 123.614 153.431 125.496 151.55C127.378 149.669 128.435 147.117 128.435 144.456C128.435 141.796 127.378 139.244 125.496 137.363C123.614 135.482 121.062 134.425 118.401 134.425H20.1886C25.0932 73.1111 74.5727 24.1565 136.125 20.0636C138.886 19.879 141.68 19.7827 144.49 19.7827C147.299 19.7827 150.108 19.879 152.854 20.0636C214.968 24.1886 264.785 73.994 268.911 136.094C269.095 138.855 269.192 141.648 269.192 144.457C269.192 147.265 269.095 150.074 268.911 152.819C264.785 214.919 214.968 264.724 152.854 268.849C150.092 269.034 147.299 269.13 144.49 269.13C141.68 269.13 138.87 269.034 136.125 268.849ZM217.882 268.849C238.904 256.395 256.453 238.85 268.911 217.832L268.911 268.849H217.882ZM268.911 71.0807C256.453 50.063 238.904 32.5183 217.882 20.0636H268.911L268.911 71.0807Z" fill="#FD7B9A"/>
<path d="M145.051 926.198C170.875 926.229 196.229 919.298 218.444 906.134C239.466 893.679 257.015 876.135 269.472 855.117C282.638 832.913 289.571 807.57 289.54 781.757L289.54 557.048H269.473L269.473 637.301L20.63 637.301L20.63 557.048H0.562014L0.562012 926.214L145.051 926.198ZM269.473 657.348L269.473 708.366C257.015 687.348 239.466 669.803 218.444 657.348L269.473 657.348ZM153.416 657.348C214.968 661.441 264.447 710.396 269.352 771.71L171.148 771.71C168.486 771.71 165.934 772.767 164.052 774.648C162.171 776.529 161.114 779.081 161.114 781.741C161.114 784.402 162.171 786.953 164.052 788.835C165.934 790.716 168.486 791.773 171.148 791.773L269.352 791.773C264.447 853.087 214.968 902.041 153.416 906.134C150.654 906.319 147.861 906.415 145.051 906.415C142.242 906.415 139.432 906.319 136.687 906.134C74.5726 902.049 24.7558 852.204 20.6299 790.104C20.4453 787.343 20.349 784.55 20.349 781.741C20.349 778.932 20.4453 776.124 20.6299 773.379C24.7559 711.279 74.5726 661.473 136.687 657.348C139.448 657.164 142.242 657.068 145.051 657.068C147.861 657.068 150.654 657.164 153.416 657.348ZM71.6587 657.348C50.6362 669.803 33.0875 687.348 20.6299 708.366L20.63 657.348H71.6587ZM20.6299 855.117C33.0875 876.135 50.6362 893.679 71.6587 906.134L20.6299 906.134L20.6299 855.117Z" fill="#FD7B9A"/>
<path d="M1031.6 658.151C1057.42 658.182 1082.77 651.251 1104.99 638.088C1126.01 625.633 1143.56 608.088 1156.02 587.071C1169.18 564.866 1176.12 539.523 1176.09 513.711L1176.09 289.001H1156.02L1156.02 369.255L907.176 369.254L907.176 289.001H887.108L887.108 658.167L1031.6 658.151ZM1156.02 389.302L1156.02 440.319C1143.56 419.301 1126.01 401.757 1104.99 389.302H1156.02ZM1039.96 389.302C1101.51 393.395 1150.99 442.349 1155.9 503.663L1057.69 503.663C1055.02 503.663 1052.47 504.72 1050.59 506.601C1048.71 508.483 1047.65 511.034 1047.65 513.695C1047.65 516.355 1048.71 518.907 1050.59 520.788C1052.47 522.67 1055.02 523.726 1057.69 523.726H1155.91C1151.01 585.04 1101.53 633.995 1039.98 638.088C1037.22 638.272 1034.42 638.369 1031.61 638.369C1028.8 638.369 1025.99 638.272 1023.25 638.088C961.134 633.963 911.318 584.157 907.192 522.057C907.007 519.296 906.911 516.504 906.911 513.695C906.911 510.886 907.007 508.077 907.192 505.332C911.318 443.232 961.134 393.427 1023.25 389.302C1026.01 389.117 1028.8 389.021 1031.61 389.021C1034.42 389.021 1037.2 389.117 1039.96 389.302ZM958.204 389.302C937.182 401.757 919.633 419.301 907.176 440.319L907.176 389.302H958.204ZM907.176 587.07C919.633 608.088 937.182 625.633 958.204 638.088H907.176L907.176 587.07Z" fill="#FD7B9A"/>
<path d="M806.836 164.295C806.805 190.113 813.738 215.461 826.904 237.671C839.362 258.689 856.91 276.233 877.933 288.688C900.142 301.85 925.491 308.782 951.309 308.751H1176.07L1176.07 288.688H1095.8L1095.8 39.9022H1176.07L1176.07 19.8389L806.82 19.8388L806.836 164.295ZM1075.75 288.688L1024.72 288.688C1045.74 276.233 1063.29 258.689 1075.75 237.671L1075.75 288.688ZM1075.75 172.658C1071.65 234.196 1022.69 283.664 961.359 288.568L961.359 190.378C961.359 187.717 960.302 185.165 958.42 183.284C956.539 181.403 953.986 180.346 951.325 180.346C948.664 180.346 946.112 181.403 944.23 183.284C942.348 185.165 941.291 187.717 941.291 190.378L941.291 288.568C879.964 283.664 830.998 234.196 826.904 172.658C826.719 169.897 826.623 167.104 826.623 164.295C826.623 161.486 826.719 158.677 826.904 155.933C831.03 93.8325 880.847 44.0272 942.961 39.9022C945.722 39.7176 948.516 39.6213 951.325 39.6213C954.135 39.6213 956.944 39.7176 959.69 39.9022C1021.8 44.0273 1071.62 93.8326 1075.75 155.933C1075.93 158.693 1076.03 161.486 1076.03 164.295C1076.03 167.104 1075.93 169.897 1075.75 172.658ZM1075.75 90.9194C1063.29 69.9017 1045.74 52.357 1024.72 39.9022H1075.75L1075.75 90.9194ZM877.933 39.9022C856.91 52.357 839.362 69.9016 826.904 90.9193L826.904 39.9022L877.933 39.9022Z" fill="#FD7B9A"/>
<path d="M558.058 389.005H682.479C708.302 389.036 733.657 382.105 755.871 368.941C776.894 356.487 794.443 338.942 806.9 317.924C820.059 295.72 826.991 270.382 826.968 244.573L826.968 19.8629H806.9L806.9 100.116L558.058 100.116L558.058 19.8629H537.99L537.99 389.029L558.058 389.005ZM806.9 120.156L806.9 171.173C794.443 150.155 776.894 132.61 755.871 120.156H806.9ZM690.843 120.156C752.396 124.249 801.875 173.203 806.78 234.517H708.567C705.906 234.517 703.354 235.574 701.472 237.455C699.59 239.336 698.533 241.888 698.533 244.549C698.533 247.209 699.59 249.761 701.472 251.642C703.354 253.523 705.906 254.58 708.567 254.58H806.78C801.915 315.894 752.396 364.849 690.843 368.941C688.082 369.126 685.288 369.222 682.479 369.222C679.669 369.222 676.86 369.126 674.115 368.941C612 364.816 562.184 315.011 558.058 252.911C557.873 250.15 557.777 247.357 557.777 244.549C557.777 241.74 557.873 238.931 558.058 236.186C562.184 174.086 612 124.281 674.115 120.156C676.876 119.971 679.67 119.875 682.479 119.875C685.289 119.875 688.082 119.971 690.843 120.156ZM609.086 120.156C588.064 132.61 570.515 150.155 558.058 171.173L558.058 120.156H609.086ZM558.058 317.924C570.515 338.942 588.064 356.487 609.086 368.941H558.058L558.058 317.924Z" fill="#FD7B9A"/>
<path d="M558.17 144.456C558.201 118.639 551.268 93.2904 538.102 71.0806C525.644 50.0629 508.096 32.5182 487.073 20.0635C464.864 6.90025 439.515 -0.0308998 413.697 0.00012207H188.936L188.936 20.0635H269.208L269.208 268.849L188.936 268.849L188.936 288.913H558.186L558.17 144.456ZM289.26 20.0635H340.288C319.266 32.5182 301.717 50.0629 289.26 71.0806L289.26 20.0635ZM289.26 136.094C293.353 74.5556 342.319 25.0874 403.647 20.1839L403.647 118.374C403.647 121.035 404.704 123.586 406.586 125.467C408.467 127.349 411.02 128.406 413.681 128.406C416.342 128.406 418.894 127.349 420.776 125.467C422.658 123.586 423.715 121.035 423.715 118.374L423.715 20.1839C485.042 25.0874 534.008 74.5556 538.102 136.094C538.287 138.855 538.383 141.648 538.383 144.456C538.383 147.265 538.287 150.074 538.102 152.819C533.976 214.919 484.159 264.724 422.045 268.849C419.284 269.034 416.49 269.13 413.681 269.13C410.871 269.13 408.062 269.034 405.317 268.849C343.202 264.724 293.385 214.919 289.26 152.819C289.075 150.074 288.979 147.265 288.979 144.456C288.979 141.647 289.075 138.839 289.26 136.094ZM289.26 217.832C301.717 238.85 319.266 256.395 340.288 268.849H289.26L289.26 217.832ZM487.073 268.849C508.096 256.395 525.644 238.85 538.102 217.832L538.102 268.849H487.073Z" fill="#FD7B9A"/>
<path d="M1301.51 926.8C1327.33 926.831 1352.69 919.9 1374.9 906.736C1395.93 894.281 1413.47 876.737 1425.93 855.719C1439.1 833.515 1446.03 808.172 1446 782.359L1446 557.65H1425.93L1425.93 637.903L1177.09 637.903L1177.09 557.65H1157.02L1157.02 926.816L1301.51 926.8ZM1425.93 657.95L1425.93 708.968C1413.47 687.95 1395.93 670.405 1374.9 657.95H1425.93ZM1309.88 657.95C1371.43 662.043 1420.91 710.998 1425.81 772.312L1327.6 772.312C1324.94 772.312 1322.39 773.368 1320.5 775.25C1318.62 777.131 1317.57 779.683 1317.57 782.343C1317.57 785.004 1318.62 787.555 1320.5 789.437C1322.39 791.318 1324.94 792.375 1327.6 792.375L1425.81 792.375C1420.91 853.689 1371.43 902.643 1309.88 906.736C1307.11 906.921 1304.32 907.017 1301.51 907.017C1298.7 907.017 1295.89 906.921 1293.15 906.736C1231.03 902.611 1181.22 852.806 1177.09 790.706C1176.91 787.945 1176.81 785.152 1176.81 782.343C1176.81 779.534 1176.91 776.726 1177.09 773.981C1181.22 711.849 1231.03 662.091 1293.18 657.95C1295.94 657.766 1298.73 657.669 1301.54 657.669C1304.35 657.669 1307.11 657.766 1309.88 657.95ZM1228.12 657.95C1207.1 670.405 1189.55 687.95 1177.09 708.967L1177.09 657.95H1228.12ZM1177.09 855.719C1189.55 876.737 1207.1 894.281 1228.12 906.736L1177.09 906.736L1177.09 855.719Z" fill="#FD7B9A"/>
<path d="M1300.4 288.624C1274.58 288.593 1249.23 295.524 1227.01 308.687C1205.99 321.142 1188.44 338.687 1175.98 359.704C1162.82 381.911 1155.89 407.252 1155.91 433.064L1155.91 657.774H1175.98L1175.98 577.52L1424.82 577.52L1424.82 657.774H1444.89L1444.89 288.608L1300.4 288.624ZM1175.98 557.473L1175.98 506.456C1188.44 527.474 1205.99 545.018 1227.01 557.473H1175.98ZM1292.04 557.473C1230.49 553.38 1181.01 504.425 1176.1 443.112H1274.31C1276.98 443.112 1279.53 442.055 1281.41 440.174C1283.29 438.292 1284.35 435.741 1284.35 433.08C1284.35 430.42 1283.29 427.868 1281.41 425.987C1279.53 424.105 1276.98 423.048 1274.31 423.048H1176.09C1180.99 361.735 1230.47 312.78 1292.02 308.687C1294.78 308.503 1297.58 308.406 1300.39 308.406C1303.2 308.406 1306.01 308.503 1308.75 308.687C1370.87 312.812 1420.68 362.618 1424.81 424.718C1424.99 427.478 1425.09 430.271 1425.09 433.08C1425.09 435.889 1424.99 438.698 1424.81 441.443C1420.68 503.543 1370.87 553.348 1308.75 557.473C1305.99 557.658 1303.2 557.754 1300.39 557.754C1297.58 557.754 1294.78 557.658 1292.02 557.473H1292.04ZM1373.8 557.473C1394.82 545.018 1412.37 527.474 1424.82 506.456L1424.82 557.473H1373.8ZM1424.82 359.704C1412.37 338.687 1394.82 321.142 1373.8 308.687H1424.82L1424.82 359.704Z" fill="#FD7B9A"/>
<path d="M1444.89 164.295C1444.92 138.478 1437.99 113.13 1424.82 90.9194C1412.37 69.9017 1394.82 52.357 1373.8 39.9022C1351.59 26.7412 1326.24 19.8102 1300.42 19.8389H1075.64L1075.64 39.9022H1155.91L1155.91 288.688H1075.64L1075.64 308.751L1444.89 308.751L1444.89 164.295ZM1175.98 39.9022H1227.01C1205.99 52.357 1188.44 69.9017 1175.98 90.9194L1175.98 39.9022ZM1175.98 155.933C1180.08 94.4023 1229.04 44.9261 1290.37 40.0306L1290.37 138.213C1290.37 140.873 1291.43 143.425 1293.31 145.306C1295.19 147.188 1297.74 148.244 1300.4 148.244C1303.06 148.244 1305.62 147.188 1307.5 145.306C1309.38 143.425 1310.44 140.873 1310.44 138.213L1310.44 40.0306C1371.76 44.9341 1420.73 94.4024 1424.82 155.933C1425.01 158.699 1425.11 161.486 1425.11 164.295C1425.11 167.104 1425.01 169.913 1424.82 172.666C1420.7 234.758 1370.88 284.563 1308.77 288.688C1306.01 288.881 1303.21 288.969 1300.4 288.969C1297.59 288.969 1294.78 288.881 1292.04 288.688C1229.92 284.563 1180.11 234.758 1175.98 172.666C1175.8 169.905 1175.7 167.104 1175.7 164.295C1175.7 161.486 1175.78 158.701 1175.98 155.933ZM1175.98 237.671C1188.44 258.689 1205.99 276.233 1227.01 288.688H1175.98L1175.98 237.671ZM1373.8 288.688C1394.82 276.233 1412.37 258.689 1424.82 237.671L1424.82 288.688H1373.8Z" fill="#FD7B9A"/>
</svg>
