<svg width="1439" height="927" viewBox="0 0 1439 927" fill="none" xmlns="http://www.w3.org/2000/svg">
<path d="M262.911 20.264L262.911 144.657C262.88 170.475 269.812 195.823 282.979 218.033C295.436 239.05 312.985 256.595 334.007 269.05C356.216 282.214 381.565 289.145 407.384 289.113L632.145 289.113L632.145 269.05L551.873 269.05L551.873 20.2641L632.145 20.2641L632.145 0.20068L262.895 0.200649L262.911 20.264ZM531.821 269.05L480.752 269.05C501.775 256.595 519.323 239.05 531.781 218.033L531.821 269.05ZM531.821 153.019C527.727 214.558 478.762 264.026 417.434 268.929L417.434 170.739C417.434 168.079 416.377 165.527 414.495 163.646C412.613 161.765 410.061 160.708 407.4 160.708C404.739 160.708 402.187 161.765 400.305 163.646C398.423 165.527 397.366 168.079 397.366 170.739L397.366 268.921C336.038 264.018 287.073 214.55 282.979 153.011C282.794 150.251 282.698 147.458 282.698 144.649C282.698 141.84 282.794 139.031 282.979 136.286C287.105 74.1863 336.921 24.381 399.036 20.256C401.797 20.0714 404.59 19.9751 407.4 19.9751C410.209 19.9751 413.019 20.0714 415.764 20.256C477.879 24.381 527.695 74.1863 531.821 136.286C532.006 139.047 532.102 141.84 532.102 144.649C532.102 147.458 532.006 150.259 531.821 153.019ZM531.821 71.2811C519.364 50.2634 501.815 32.7188 480.792 20.2641L531.821 20.2641L531.821 71.2811ZM334.007 20.264C312.985 32.7188 295.436 50.2634 282.979 71.2811L282.979 20.264L334.007 20.264Z" fill="#B9BED1"/>
<path d="M532.648 144.456C532.617 170.274 539.55 195.622 552.716 217.832C565.174 238.85 582.722 256.394 603.745 268.849C625.954 282.012 651.303 288.944 677.121 288.913L901.882 288.913L901.882 268.849L821.61 268.849L821.61 20.0634L901.882 20.0634L901.882 4.95812e-05L532.632 1.85876e-05L532.648 144.456ZM801.558 268.849L750.53 268.849C771.552 256.394 789.101 238.85 801.558 217.832L801.558 268.849ZM801.558 152.819C797.465 214.357 748.499 263.825 687.171 268.729L687.171 170.539C687.171 167.878 686.114 165.326 684.232 163.445C682.351 161.564 679.798 160.507 677.137 160.507C674.476 160.507 671.924 161.564 670.042 163.445C668.16 165.326 667.103 167.878 667.103 170.539L667.103 268.729C605.776 263.825 556.81 214.357 552.716 152.819C552.531 150.058 552.435 147.265 552.435 144.456C552.435 141.647 552.531 138.838 552.716 136.094C556.842 73.9937 606.659 24.1884 668.773 20.0634C671.534 19.8788 674.328 19.7825 677.137 19.7825C679.947 19.7825 682.756 19.8788 685.502 20.0634C747.616 24.1884 797.433 73.9937 801.558 136.094C801.743 138.855 801.839 141.647 801.839 144.456C801.839 147.265 801.743 150.058 801.558 152.819ZM801.558 71.0805C789.101 50.0628 771.552 32.5181 750.53 20.0634L801.558 20.0634L801.558 71.0805ZM603.745 20.0634C582.722 32.5181 565.174 50.0628 552.716 71.0805L552.716 20.0634L603.745 20.0634Z" fill="#B9BED1"/>
<path d="M1170.81 144.456C1170.84 118.639 1163.91 93.2903 1150.74 71.0805C1138.28 50.0628 1120.73 32.5181 1099.71 20.0634C1077.5 6.90641 1052.15 -0.0242908 1026.34 -1.00772e-06L801.575 -1.98734e-05L801.575 20.0634L881.846 20.0634L881.846 268.849L801.575 268.849L801.575 288.913L1170.82 288.913L1170.81 144.456ZM901.898 20.0634L952.927 20.0634C931.904 32.5181 914.356 50.0628 901.898 71.0805L901.898 20.0634ZM901.898 136.094C905.992 74.5554 954.958 25.0873 1016.29 20.1838L1016.29 118.374C1016.29 121.034 1017.34 123.586 1019.22 125.467C1021.11 127.349 1023.66 128.406 1026.32 128.406C1028.98 128.406 1031.53 127.349 1033.41 125.467C1035.3 123.586 1036.35 121.034 1036.35 118.374L1036.35 20.1838C1097.68 25.0873 1146.65 74.5555 1150.74 136.094C1150.93 138.855 1151.02 141.647 1151.02 144.456C1151.02 147.265 1150.93 150.074 1150.74 152.819C1146.61 214.919 1096.8 264.724 1034.68 268.849C1031.92 269.034 1029.13 269.13 1026.32 269.13C1023.51 269.13 1020.7 269.034 1017.96 268.849C955.841 264.724 906.024 214.919 901.898 152.819C901.714 150.058 901.617 147.265 901.617 144.456C901.617 141.647 901.714 138.855 901.898 136.094ZM901.898 217.832C914.356 238.85 931.904 256.394 952.927 268.849L901.898 268.849L901.898 217.832ZM1099.71 268.849C1120.73 256.394 1138.28 238.85 1150.74 217.832L1150.74 268.849L1099.71 268.849Z" fill="#B9BED1"/>
<path d="M532.648 414.26C532.617 440.078 539.549 465.426 552.716 487.636C565.173 508.654 582.722 526.199 603.745 538.653C625.956 551.81 651.304 558.741 677.121 558.717L901.882 558.717L901.882 538.653L821.61 538.653L821.61 289.868L901.882 289.868L901.882 269.804L532.632 269.804L532.648 414.26ZM801.558 538.653L750.53 538.653C771.552 526.199 789.101 508.654 801.558 487.636L801.558 538.653ZM801.558 422.623C797.465 484.161 748.499 533.63 687.171 538.533L687.171 440.343C687.171 437.682 686.114 435.131 684.232 433.249C682.351 431.368 679.798 430.311 677.137 430.311C674.476 430.311 671.924 431.368 670.042 433.249C668.16 435.131 667.103 437.682 667.103 440.343L667.103 538.533C605.776 533.63 556.81 484.161 552.716 422.623C552.531 419.862 552.435 417.069 552.435 414.26C552.435 411.452 552.531 408.643 552.716 405.898C556.842 343.798 606.659 293.993 668.773 289.868C671.534 289.683 674.328 289.587 677.137 289.587C679.947 289.587 682.756 289.683 685.501 289.868C747.616 293.993 797.432 343.798 801.558 405.898C801.743 408.659 801.839 411.452 801.839 414.26C801.839 417.069 801.743 419.862 801.558 422.623ZM801.558 340.885C789.101 319.867 771.552 302.322 750.53 289.868L801.558 289.868L801.558 340.885ZM603.745 289.868C582.722 302.322 565.173 319.867 552.716 340.885L552.716 289.868L603.745 289.868Z" fill="#B9BED1"/>
<path d="M1026.32 558.516C1052.14 558.547 1077.5 551.616 1099.71 538.453C1120.73 525.998 1138.28 508.453 1150.74 487.436C1163.9 465.229 1170.83 439.888 1170.81 414.076L1170.81 189.366L1150.74 189.366L1150.74 269.62L901.898 269.62L901.898 189.366L881.83 189.366L881.83 558.532L1026.32 558.516ZM1150.74 289.667L1150.74 340.684C1138.28 319.666 1120.73 302.122 1099.71 289.667L1150.74 289.667ZM1034.68 289.667C1096.24 293.76 1145.72 342.714 1150.62 404.028L1052.41 404.028C1049.75 404.028 1047.19 405.085 1045.31 406.966C1043.43 408.848 1042.37 411.399 1042.37 414.06C1042.37 416.72 1043.43 419.272 1045.31 421.153C1047.19 423.035 1049.75 424.092 1052.41 424.092L1150.62 424.092C1145.72 485.405 1096.24 534.36 1034.68 538.453C1031.92 538.637 1029.13 538.734 1026.32 538.734C1023.51 538.734 1020.7 538.637 1017.96 538.453C955.841 534.328 906.024 484.522 901.898 422.422C901.714 419.662 901.617 416.869 901.617 414.06C901.617 411.251 901.714 408.442 901.898 405.697C906.024 343.557 955.841 293.8 1017.96 289.667C1020.72 289.482 1023.51 289.386 1026.32 289.386C1029.13 289.386 1031.92 289.482 1034.68 289.667ZM952.927 289.667C931.904 302.122 914.356 319.666 901.898 340.684L901.898 289.667L952.927 289.667ZM901.898 487.436C914.356 508.453 931.904 525.998 952.927 538.453L901.898 538.453L901.898 487.436Z" fill="#B9BED1"/>
<path d="M1440 414.06C1440.03 388.242 1433.1 362.894 1419.93 340.684C1407.47 319.666 1389.93 302.122 1368.9 289.667C1346.69 276.504 1321.35 269.573 1295.53 269.604L1070.75 269.604L1070.75 289.667L1151.02 289.667L1151.02 538.453L1070.75 538.453L1070.75 558.516L1440 558.516L1440 414.06ZM1171.09 289.667L1222.12 289.667C1201.1 302.122 1183.55 319.666 1171.09 340.684L1171.09 289.667ZM1171.09 405.697C1175.18 344.159 1224.15 294.691 1285.48 289.787L1285.48 387.978C1285.48 390.638 1286.53 393.19 1288.42 395.071C1290.3 396.952 1292.85 398.009 1295.51 398.009C1298.17 398.009 1300.72 396.952 1302.61 395.071C1304.49 393.19 1305.54 390.638 1305.54 387.978L1305.54 289.787C1366.87 294.691 1415.84 344.159 1419.93 405.698C1420.12 408.458 1420.21 411.251 1420.21 414.06C1420.21 416.869 1420.12 419.678 1419.93 422.422C1415.81 484.523 1365.99 534.328 1303.88 538.453C1301.11 538.637 1298.32 538.734 1295.51 538.734C1292.7 538.734 1289.89 538.637 1287.15 538.453C1225.03 534.328 1175.22 484.522 1171.09 422.422C1170.9 419.662 1170.81 416.869 1170.81 414.06C1170.81 411.251 1170.9 408.458 1171.09 405.697ZM1171.09 487.436C1183.55 508.453 1201.1 525.998 1222.12 538.453L1171.09 538.453L1171.09 487.436ZM1368.9 538.453C1389.93 525.998 1407.47 508.453 1419.93 487.436L1419.93 538.453L1368.9 538.453Z" fill="#B9BED1"/>
<path d="M1295.51 927C1321.33 927.031 1346.69 920.1 1368.9 906.937C1389.93 894.482 1407.47 876.937 1419.93 855.919C1433.1 833.711 1440.03 808.362 1440 782.544L1440 557.834L1419.93 557.834L1419.93 638.087L1171.09 638.087L1171.09 557.834L1151.02 557.834L1151.02 927L1295.51 927ZM1419.93 658.151L1419.93 709.168C1407.47 688.15 1389.93 670.606 1368.9 658.151L1419.93 658.151ZM1303.88 658.151C1365.43 662.244 1414.91 711.198 1419.81 772.512L1321.6 772.512C1318.94 772.512 1316.39 773.569 1314.5 775.45C1312.62 777.332 1311.57 779.883 1311.57 782.544C1311.57 785.204 1312.62 787.756 1314.5 789.637C1316.39 791.518 1318.94 792.575 1321.6 792.575L1419.81 792.575C1414.91 853.889 1365.43 902.844 1303.88 906.937C1301.11 907.121 1298.32 907.217 1295.51 907.217C1292.7 907.217 1289.89 907.121 1287.15 906.937C1225.03 902.812 1175.22 853.006 1171.09 790.906C1170.9 788.145 1170.81 785.353 1170.81 782.544C1170.81 779.735 1170.9 776.926 1171.09 774.181C1175.22 712.081 1225.03 662.276 1287.15 658.151C1289.91 657.966 1292.7 657.87 1295.51 657.87C1298.32 657.87 1301.13 657.966 1303.88 658.151ZM1222.12 658.151C1201.1 670.605 1183.55 688.15 1171.09 709.168L1171.09 658.151L1222.12 658.151ZM1171.09 855.919C1183.55 876.937 1201.1 894.482 1222.12 906.937L1171.09 906.937L1171.09 855.919Z" fill="#B9BED1"/>
<path d="M1294.95 0.802634C1269.13 0.771473 1243.77 7.70256 1221.56 20.866C1200.53 33.3207 1182.99 50.8654 1170.53 71.8831C1157.36 94.0874 1150.43 119.43 1150.46 145.243L1150.46 369.953L1170.53 369.953L1170.53 289.699L1419.37 289.699L1419.37 369.953L1439.44 369.953L1439.44 0.786563L1294.95 0.802634ZM1170.53 269.652L1170.53 218.635C1182.99 239.652 1200.53 257.197 1221.56 269.652L1170.53 269.652ZM1286.58 269.652C1225.03 265.559 1175.55 216.604 1170.65 155.291L1268.85 155.291C1271.51 155.291 1274.07 154.234 1275.95 152.352C1277.83 150.471 1278.89 147.919 1278.89 145.259C1278.89 142.598 1277.83 140.047 1275.95 138.165C1274.07 136.284 1271.51 135.227 1268.85 135.227L1170.65 135.227C1175.55 73.9135 1225.03 24.9589 1286.58 20.866C1289.35 20.6814 1292.14 20.5851 1294.95 20.5851C1297.76 20.5851 1300.57 20.6814 1303.31 20.866C1365.43 24.9509 1415.24 74.7963 1419.37 136.896C1419.55 139.657 1419.65 142.45 1419.65 145.259C1419.65 148.068 1419.55 150.877 1419.37 153.621C1415.24 215.721 1365.43 265.527 1303.31 269.652C1300.55 269.836 1297.76 269.933 1294.95 269.933C1292.14 269.933 1289.35 269.836 1286.58 269.652ZM1368.34 269.652C1389.36 257.197 1406.91 239.652 1419.37 218.635L1419.37 269.652L1368.34 269.652ZM1419.37 71.8831C1406.91 50.8654 1389.36 33.3207 1368.34 20.866L1419.37 20.866L1419.37 71.8831Z" fill="#B9BED1"/>
<path d="M408.403 268.849C382.58 268.818 357.226 275.749 335.011 288.913C313.988 301.367 296.44 318.912 283.982 339.93C270.816 362.134 263.884 387.477 263.914 413.289L263.914 637.999L283.982 637.999L283.982 557.746L532.825 557.746L532.825 637.999L552.892 637.999L552.892 268.833L408.403 268.849ZM283.982 537.698L283.982 486.681C296.44 507.699 313.988 525.244 335.011 537.698L283.982 537.698ZM400.039 537.698C338.486 533.605 289.007 484.651 284.102 423.337L382.315 423.337C384.976 423.337 387.528 422.28 389.41 420.399C391.292 418.518 392.349 415.966 392.349 413.305C392.349 410.645 391.292 408.093 389.41 406.212C387.528 404.331 384.976 403.274 382.315 403.274L284.086 403.274C288.991 341.96 338.471 293.005 400.023 288.913C402.784 288.728 405.578 288.632 408.387 288.632C411.197 288.632 414.006 288.728 416.752 288.913C478.866 293.038 528.683 342.843 532.808 404.943C532.993 407.704 533.089 410.497 533.089 413.305C533.089 416.114 532.993 418.923 532.808 421.668C528.682 483.768 478.866 533.573 416.752 537.698C413.99 537.883 411.197 537.979 408.387 537.979C405.578 537.979 402.8 537.883 400.039 537.698ZM481.796 537.698C502.818 525.244 520.367 507.699 532.825 486.681L532.825 537.698L481.796 537.698ZM532.825 339.93C520.367 318.912 502.818 301.367 481.796 288.913L532.825 288.913L532.825 339.93Z" fill="#B9BED1"/>
<path d="M633.164 762.705C633.195 736.887 626.263 711.539 613.096 689.329C600.639 668.312 583.09 650.767 562.068 638.312C539.858 625.15 514.509 618.219 488.691 618.249L263.93 618.249L263.93 638.312L344.202 638.312L344.202 887.098L263.93 887.098L263.93 907.161L633.18 907.161L633.164 762.705ZM364.254 638.312L415.282 638.312C394.26 650.767 376.711 668.312 364.254 689.329L364.254 638.312ZM364.254 754.343C368.348 692.804 417.313 643.336 478.641 638.433L478.641 736.623C478.641 739.283 479.698 741.835 481.58 743.716C483.462 745.598 486.014 746.654 488.675 746.654C491.336 746.654 493.888 745.598 495.77 743.716C497.652 741.835 498.709 739.283 498.709 736.623L498.709 638.433C560.037 643.336 609.002 692.804 613.096 754.343C613.281 757.103 613.377 759.896 613.377 762.705C613.377 765.514 613.281 768.323 613.096 771.068C608.97 833.168 559.154 882.973 497.039 887.098C494.278 887.283 491.484 887.379 488.675 887.379C485.865 887.379 483.056 887.283 480.311 887.098C418.196 882.973 368.38 833.168 364.254 771.067C364.069 768.307 363.973 765.514 363.973 762.705C363.973 759.896 364.069 757.103 364.254 754.343ZM364.254 836.081C376.711 857.099 394.26 874.643 415.282 887.098L364.254 887.098L364.254 836.081ZM562.068 887.098C583.09 874.643 600.639 857.099 613.096 836.081L613.096 887.098L562.068 887.098Z" fill="#B9BED1"/>
<path d="M881.943 537.995L757.521 537.995C731.698 537.964 706.344 544.895 684.129 558.059C663.106 570.513 645.558 588.058 633.1 609.076C619.941 631.28 613.009 656.619 613.032 682.428L613.032 907.137L633.1 907.137L633.1 826.884L881.943 826.884L881.943 907.137L902.01 907.137L902.01 537.971L881.943 537.995ZM633.1 806.844L633.1 755.827C645.558 776.845 663.106 794.39 684.129 806.844L633.1 806.844ZM749.157 806.845C687.605 802.752 638.125 753.797 633.22 692.483L731.433 692.483C734.094 692.483 736.646 691.426 738.528 689.545C740.41 687.664 741.467 685.112 741.467 682.452C741.467 679.791 740.41 677.239 738.528 675.358C736.646 673.477 734.094 672.42 731.433 672.42L633.22 672.42C638.085 611.106 687.605 562.152 749.157 558.059C751.918 557.874 754.712 557.778 757.521 557.778C760.331 557.778 763.14 557.874 765.886 558.059C828 562.184 877.817 611.989 881.943 674.089C882.127 676.85 882.224 679.643 882.224 682.452C882.224 685.26 882.127 688.069 881.943 690.814C877.817 752.914 828 802.72 765.886 806.845C763.124 807.029 760.331 807.125 757.521 807.125C754.712 807.125 751.918 807.029 749.157 806.845ZM830.914 806.845C851.936 794.39 869.485 776.845 881.943 755.827L881.943 806.845L830.914 806.845ZM881.943 609.076C869.485 588.058 851.936 570.513 830.914 558.059L881.943 558.059L881.943 609.076Z" fill="#B9BED1"/>
<path d="M881.83 782.544C881.799 808.361 888.732 833.71 901.898 855.92C914.356 876.937 931.904 894.482 952.927 906.937C975.136 920.1 1000.48 927.031 1026.3 927L1251.06 927L1251.06 906.937L1170.79 906.937L1170.79 658.151L1251.06 658.151L1251.06 638.088L881.814 638.088L881.83 782.544ZM1150.74 906.937L1099.71 906.937C1120.73 894.482 1138.28 876.937 1150.74 855.92L1150.74 906.937ZM1150.74 790.906C1146.65 852.445 1097.68 901.913 1036.35 906.816L1036.35 808.626C1036.35 805.966 1035.3 803.414 1033.41 801.533C1031.53 799.651 1028.98 798.594 1026.32 798.594C1023.66 798.594 1021.11 799.651 1019.22 801.533C1017.34 803.414 1016.29 805.966 1016.29 808.626L1016.29 906.816C954.958 901.913 905.992 852.445 901.898 790.906C901.714 788.145 901.617 785.353 901.617 782.544C901.617 779.735 901.714 776.926 901.898 774.181C906.024 712.081 955.841 662.276 1017.96 658.151C1020.72 657.966 1023.51 657.87 1026.32 657.87C1029.13 657.87 1031.94 657.966 1034.68 658.151C1096.8 662.276 1146.61 712.081 1150.74 774.181C1150.93 776.926 1151.02 779.735 1151.02 782.544C1151.02 785.353 1150.93 788.162 1150.74 790.906ZM1150.74 709.168C1138.28 688.15 1120.73 670.606 1099.71 658.151L1150.74 658.151L1150.74 709.168ZM952.927 658.151C931.904 670.606 914.356 688.15 901.898 709.168L901.898 658.151L952.927 658.151Z" fill="#B9BED1"/>
<path d="M138.489 0.200669C112.666 0.169508 87.3117 7.1006 65.0968 20.264C44.0743 32.7188 26.5256 50.2634 14.0681 71.2811C0.902568 93.4854 -6.03014 118.828 -5.9999 144.641L-5.99992 369.351L14.068 369.351L14.068 289.097L262.911 289.097L262.911 369.351L282.979 369.351L282.979 0.184598L138.489 0.200669ZM14.068 269.05L14.0681 218.033C26.5256 239.05 44.0743 256.595 65.0968 269.05L14.068 269.05ZM130.125 269.05C68.5726 264.957 19.0931 216.002 14.1885 154.689L112.401 154.689C115.062 154.689 117.614 153.632 119.496 151.75C121.378 149.869 122.435 147.317 122.435 144.657C122.435 141.996 121.378 139.445 119.496 137.563C117.614 135.682 115.062 134.625 112.401 134.625L14.1885 134.625C19.0931 73.3115 68.5726 24.3569 130.125 20.264C132.886 20.0795 135.68 19.9832 138.489 19.9832C141.299 19.9832 144.108 20.0795 146.854 20.264C208.968 24.3891 258.785 74.1944 262.911 136.294C263.095 139.055 263.192 141.848 263.192 144.657C263.192 147.466 263.095 150.275 262.911 153.019C258.785 215.152 208.968 264.909 146.822 269.05C144.06 269.234 141.267 269.331 138.457 269.331C135.648 269.331 132.886 269.234 130.125 269.05ZM211.882 269.05C232.904 256.595 250.453 239.05 262.911 218.033L262.911 269.05L211.882 269.05ZM262.911 71.2811C250.453 50.2634 232.904 32.7188 211.882 20.264L262.911 20.264L262.911 71.2811Z" fill="#B9BED1"/>
<path d="M139.597 638.376C165.421 638.407 190.775 631.476 212.99 618.313C234.012 605.858 251.561 588.314 264.018 567.296C277.178 545.089 284.111 519.748 284.086 493.936L284.086 269.226L264.018 269.226L264.018 349.48L15.1759 349.48L15.1759 269.226L-4.89206 269.226L-4.8921 638.392L139.597 638.376ZM264.018 369.527L264.018 420.544C251.561 399.527 234.012 381.982 212.99 369.527L264.018 369.527ZM147.962 369.527C209.514 373.62 258.993 422.575 263.898 483.888L165.685 483.888C163.024 483.888 160.472 484.945 158.59 486.827C156.709 488.708 155.651 491.26 155.651 493.92C155.651 496.581 156.709 499.132 158.59 501.014C160.472 502.895 163.024 503.952 165.685 503.952L263.914 503.952C259.009 565.265 209.53 614.22 147.977 618.313C145.216 618.498 142.423 618.594 139.613 618.594C136.804 618.594 133.994 618.498 131.249 618.313C69.1345 614.188 19.3179 564.383 15.1919 502.283C15.0073 499.522 14.911 496.729 14.911 493.92C14.911 491.111 15.0073 488.302 15.1919 485.558C19.3179 423.458 69.1346 373.652 131.249 369.527C134.01 369.343 136.804 369.246 139.613 369.246C142.423 369.246 145.216 369.343 147.977 369.527L147.962 369.527ZM66.2046 369.527C45.1821 381.982 27.6334 399.527 15.1759 420.544L15.1759 369.527L66.2046 369.527ZM15.1758 567.296C27.6334 588.314 45.1821 605.858 66.2046 618.313L15.1758 618.313L15.1758 567.296Z" fill="#B9BED1"/>
<path d="M-4.89211 762.705C-4.92208 788.522 2.0105 813.871 15.1758 836.081C27.6334 857.099 45.182 874.643 66.2046 887.098C88.4146 900.259 113.763 907.19 139.581 907.161L364.358 907.161L364.358 887.098L284.086 887.098L284.086 638.312L364.358 638.312L364.358 618.249L-4.8921 618.249L-4.89211 762.705ZM264.018 887.098L212.99 887.098C234.012 874.643 251.561 857.099 264.018 836.081L264.018 887.098ZM264.018 771.068C259.925 832.598 210.959 882.074 149.631 886.97L149.631 788.787C149.631 786.127 148.574 783.575 146.692 781.694C144.81 779.813 142.258 778.756 139.597 778.756C136.936 778.756 134.384 779.813 132.502 781.694C130.62 783.575 129.563 786.127 129.563 788.787L129.563 886.97C68.2355 882.066 19.2697 832.598 15.1758 771.067C14.9885 768.301 14.8949 765.514 14.8949 762.705C14.8949 759.896 14.9912 757.087 15.1758 754.335C19.3018 692.242 69.1185 642.437 131.233 638.312C133.994 638.12 136.788 638.031 139.597 638.031C142.407 638.031 145.216 638.12 147.961 638.312C210.076 642.437 259.892 692.243 264.018 754.335C264.203 757.095 264.299 759.896 264.299 762.705C264.299 765.514 264.219 768.299 264.018 771.068ZM264.018 689.329C251.561 668.312 234.012 650.767 212.99 638.312L264.018 638.312L264.018 689.329ZM66.2046 638.312C45.1821 650.767 27.6334 668.312 15.1758 689.329L15.1758 638.312L66.2046 638.312Z" fill="#B9BED1"/>
</svg>
