<svg width="15" height="15" viewBox="0 0 15 15" fill="none" xmlns="http://www.w3.org/2000/svg">
<g clip-path="url(#clip0_544_31)">
<path d="M7.5 15C3.36437 15 0 11.6356 0 7.5C0 3.36437 3.36437 0 7.5 0C11.6356 0 15 3.36437 15 7.5C15 11.6356 11.6356 15 7.5 15ZM7.5 0.625C3.70937 0.625 0.625 3.70937 0.625 7.5C0.625 11.2906 3.70937 14.375 7.5 14.375C11.2906 14.375 14.375 11.2906 14.375 7.5C14.375 3.70937 11.2906 0.625 7.5 0.625ZM10.625 7.8125C10.625 7.64 10.485 7.5 10.3125 7.5H7.5V3.4375C7.5 3.265 7.36 3.125 7.1875 3.125C7.015 3.125 6.875 3.265 6.875 3.4375V7.8125C6.875 7.985 7.015 8.125 7.1875 8.125H10.3125C10.485 8.125 10.625 7.985 10.625 7.8125Z" fill="#535353"/>
</g>
<defs>
<clipPath id="clip0_544_31">
<rect width="15" height="15" fill="white"/>
</clipPath>
</defs>
</svg>
