<svg width="24" height="24" viewBox="0 0 24 24" fill="none" xmlns="http://www.w3.org/2000/svg">
<g clip-path="url(#clip0_8_2343)">
<path d="M8 21V5C8 2.8 9.8 1 12 1H16.3C17.4 1 18.4 1.4 19.1 2.2L21.8 4.9C22.6 5.7 23 6.7 23 7.7V13C23 14.1 22.1 15 21 15H13V20C13 21.7 11.7 23 10 23C8.9 23 8 22.1 8 21Z" stroke="#A8A8A8" stroke-width="1.5" stroke-miterlimit="10" stroke-linecap="round" stroke-linejoin="round"/>
<path d="M3 1H8V15H3C1.9 15 1 14.1 1 13V3C1 1.9 1.9 1 3 1Z" stroke="#A8A8A8" stroke-width="1.5" stroke-miterlimit="10" stroke-linecap="round" stroke-linejoin="round"/>
</g>
<defs>
<clipPath id="clip0_8_2343">
<rect width="24" height="24" fill="white"/>
</clipPath>
</defs>
</svg>
