<svg width="25" height="27" viewBox="0 0 25 27" fill="none" xmlns="http://www.w3.org/2000/svg">
<path d="M21.654 27C21.2378 26.9989 20.826 26.9153 20.4423 26.754C20.0586 26.5928 19.7107 26.3571 19.4186 26.0606L12.4999 19.1824L5.58114 26.0651C5.1368 26.5159 4.56695 26.8224 3.94586 26.9446C3.32478 27.0669 2.68129 26.9991 2.09927 26.7503C1.51148 26.5138 1.00863 26.1056 0.65641 25.579C0.304187 25.0524 0.118952 24.4318 0.124895 23.7983V5.625C0.124895 4.13316 0.717527 2.70242 1.77242 1.64752C2.82731 0.592632 4.25805 0 5.74989 0L19.2499 0C19.9886 0 20.72 0.145495 21.4025 0.428178C22.0849 0.71086 22.705 1.12519 23.2274 1.64752C23.7497 2.16985 24.164 2.78995 24.4467 3.47241C24.7294 4.15486 24.8749 4.88631 24.8749 5.625V23.7983C24.8812 24.4313 24.6966 25.0515 24.3452 25.5781C23.9939 26.1046 23.492 26.5131 22.905 26.7503C22.5088 26.916 22.0835 27.0009 21.654 27ZM5.74989 2.25C4.85479 2.25 3.99634 2.60558 3.36341 3.23852C2.73047 3.87145 2.37489 4.72989 2.37489 5.625V23.7983C2.37449 23.9857 2.42965 24.1691 2.53341 24.3252C2.63717 24.4814 2.78487 24.6032 2.95786 24.6755C3.13085 24.7477 3.32136 24.767 3.50534 24.731C3.68932 24.6951 3.8585 24.6053 3.99152 24.4733L11.7124 16.7996C11.9232 16.5901 12.2083 16.4725 12.5055 16.4725C12.8027 16.4725 13.0879 16.5901 13.2986 16.7996L21.0105 24.471C21.1435 24.6031 21.3127 24.6928 21.4967 24.7288C21.6807 24.7648 21.8712 24.7454 22.0442 24.6732C22.2172 24.601 22.3649 24.4791 22.4686 24.323C22.5724 24.1668 22.6276 23.9835 22.6271 23.796V5.625C22.6271 4.72989 22.2716 3.87145 21.6386 3.23852C21.0057 2.60558 20.1473 2.25 19.2521 2.25H5.74989Z" fill="black"/>
</svg>
