<svg width="164" height="45" viewBox="0 0 164 45" fill="none" xmlns="http://www.w3.org/2000/svg">
<path d="M2.63656 41H1.72456V33.32H8.52456V41H7.62856V34.168H2.63656V41ZM14.2214 39.992L17.0854 33.32H18.0454L14.1574 42.264C13.4428 43.8853 12.5254 44.696 11.4054 44.696C11.1494 44.696 10.8774 44.664 10.5894 44.6V43.8C10.8241 43.864 11.0588 43.896 11.2934 43.896C11.7414 43.896 12.1308 43.736 12.4614 43.416C12.8028 43.096 13.1121 42.6 13.3894 41.928L13.7734 41.032L9.99744 33.32H10.9574L14.2214 39.992ZM22.4956 41H21.5836V34.168H18.6076V33.32H25.4716V34.168H22.4956V41ZM27.7586 41H26.9746V33.32H27.8866V39.544L33.0866 33.32H33.8706V41H32.9746V34.776L27.7586 41ZM43.3706 41H42.4586V34.168H39.4826V33.32H46.3466V34.168H43.3706V41ZM52.0736 41H47.8496V33.32H51.9136C52.6176 33.32 53.1829 33.5013 53.6096 33.864C54.0469 34.216 54.2656 34.712 54.2656 35.352C54.2656 35.768 54.1589 36.1307 53.9456 36.44C53.7322 36.7493 53.4496 36.9627 53.0976 37.08C53.5029 37.1867 53.8389 37.3947 54.1056 37.704C54.3829 38.0133 54.5216 38.4187 54.5216 38.92C54.5216 39.5707 54.3029 40.0827 53.8656 40.456C53.4389 40.8187 52.8416 41 52.0736 41ZM48.7456 37.512V40.2H51.9296C53.0496 40.2 53.6096 39.7573 53.6096 38.872C53.6096 37.9653 53.0709 37.512 51.9936 37.512H48.7456ZM48.7456 34.12V36.712H51.8336C52.8362 36.712 53.3376 36.2853 53.3376 35.432C53.3376 34.9947 53.1936 34.6693 52.9056 34.456C52.6282 34.232 52.2602 34.12 51.8016 34.12H48.7456ZM57.2243 40.104C56.435 39.3787 56.0403 38.3973 56.0403 37.16C56.0403 35.9227 56.435 34.9467 57.2243 34.232C58.0243 33.5067 58.9736 33.144 60.0723 33.144C61.1816 33.144 62.131 33.5067 62.9203 34.232C63.7203 34.9467 64.1203 35.9227 64.1203 37.16C64.1203 38.3973 63.7203 39.3787 62.9203 40.104C62.131 40.8187 61.1816 41.176 60.0723 41.176C58.9736 41.176 58.0243 40.8187 57.2243 40.104ZM62.3123 39.464C62.9096 38.8987 63.2083 38.1307 63.2083 37.16C63.2083 36.1893 62.9096 35.4213 62.3123 34.856C61.715 34.2907 60.9736 34.008 60.0883 34.008C59.203 34.008 58.4563 34.2907 57.8483 34.856C57.251 35.4213 56.9523 36.1893 56.9523 37.16C56.9523 38.1307 57.251 38.8987 57.8483 39.464C58.4563 40.0293 59.203 40.312 60.0883 40.312C60.9736 40.312 61.715 40.0293 62.3123 39.464ZM65.5559 37.16C65.5559 35.912 65.9346 34.9307 66.6919 34.216C67.4599 33.5013 68.3453 33.144 69.3479 33.144C69.9133 33.144 70.4199 33.2347 70.8679 33.416C71.3159 33.5867 71.6733 33.8213 71.9399 34.12C72.2173 34.4187 72.4466 34.76 72.6279 35.144C72.8093 35.528 72.9053 35.928 72.9159 36.344C72.9373 36.7493 72.9159 37.16 72.8519 37.576H66.4679C66.5213 38.4933 66.8733 39.1867 67.5239 39.656C68.1746 40.1147 68.9693 40.344 69.9079 40.344C70.8679 40.344 71.7053 40.136 72.4199 39.72V40.616C71.7266 40.9893 70.8466 41.176 69.7799 41.176C68.5746 41.176 67.5666 40.8347 66.7559 40.152C65.9559 39.4693 65.5559 38.472 65.5559 37.16ZM72.0519 36.776C72.1266 36.104 71.9453 35.4693 71.5079 34.872C71.0813 34.2747 70.3826 33.976 69.4119 33.976C68.6226 33.976 67.9453 34.2267 67.3799 34.728C66.8146 35.2187 66.5106 35.9013 66.4679 36.776H72.0519ZM75.7303 41H74.8183V33.32H80.3383V34.168H75.7303V41ZM82.1149 40.104C81.3256 39.3787 80.9309 38.3973 80.9309 37.16C80.9309 35.9227 81.3256 34.9467 82.1149 34.232C82.9149 33.5067 83.8643 33.144 84.9629 33.144C86.0723 33.144 87.0216 33.5067 87.8109 34.232C88.6109 34.9467 89.0109 35.9227 89.0109 37.16C89.0109 38.3973 88.6109 39.3787 87.8109 40.104C87.0216 40.8187 86.0723 41.176 84.9629 41.176C83.8643 41.176 82.9149 40.8187 82.1149 40.104ZM87.2029 39.464C87.8003 38.8987 88.0989 38.1307 88.0989 37.16C88.0989 36.1893 87.8003 35.4213 87.2029 34.856C86.6056 34.2907 85.8643 34.008 84.9789 34.008C84.0936 34.008 83.3469 34.2907 82.7389 34.856C82.1416 35.4213 81.8429 36.1893 81.8429 37.16C81.8429 38.1307 82.1416 38.8987 82.7389 39.464C83.3469 40.0293 84.0936 40.312 84.9789 40.312C85.8643 40.312 86.6056 40.0293 87.2029 39.464ZM95.8999 34.904C96.7106 33.7307 97.8039 33.144 99.1799 33.144C100.279 33.144 101.191 33.5227 101.916 34.28C102.641 35.0267 103.004 35.9867 103.004 37.16C103.004 38.3333 102.641 39.2987 101.916 40.056C101.191 40.8027 100.279 41.176 99.1799 41.176C98.4653 41.176 97.8359 41.0213 97.2919 40.712C96.7479 40.392 96.3159 39.992 95.9959 39.512V44.52H95.0839V33.32H95.8999V34.904ZM102.092 37.16C102.092 36.2 101.804 35.432 101.228 34.856C100.652 34.2693 99.9319 33.976 99.0679 33.976C98.3533 33.976 97.7186 34.184 97.1639 34.6C96.6093 35.0053 96.2146 35.512 95.9799 36.12V38.2C96.2146 38.808 96.6093 39.32 97.1639 39.736C97.7186 40.1413 98.3533 40.344 99.0679 40.344C99.9426 40.344 100.663 40.056 101.228 39.48C101.804 38.904 102.092 38.1307 102.092 37.16ZM111.007 39.608C111.007 40.056 111.236 40.28 111.695 40.28C111.865 40.28 112.063 40.2427 112.287 40.168V40.904C111.999 41.0107 111.721 41.064 111.455 41.064C110.644 41.064 110.201 40.6693 110.127 39.88C109.327 40.744 108.276 41.176 106.975 41.176C106.239 41.176 105.609 40.984 105.087 40.6C104.564 40.2053 104.303 39.64 104.303 38.904C104.303 38.0293 104.633 37.3947 105.295 37C105.956 36.5947 106.756 36.392 107.695 36.392C108.516 36.392 109.321 36.504 110.111 36.728V36.216C110.111 35.5333 109.897 34.9893 109.471 34.584C109.044 34.1787 108.441 33.976 107.663 33.976C106.681 33.976 105.764 34.1573 104.911 34.52V33.624C105.817 33.304 106.767 33.144 107.759 33.144C108.783 33.144 109.577 33.4213 110.143 33.976C110.719 34.5307 111.007 35.3147 111.007 36.328V39.608ZM105.231 38.856C105.231 39.3573 105.417 39.7413 105.791 40.008C106.164 40.264 106.617 40.392 107.151 40.392C107.737 40.392 108.292 40.264 108.815 40.008C109.337 39.7413 109.769 39.368 110.111 38.888V37.48C109.3 37.2667 108.537 37.16 107.823 37.16C107.097 37.16 106.484 37.2987 105.983 37.576C105.481 37.8427 105.231 38.2693 105.231 38.856ZM119.229 38.952C119.229 39.6773 118.925 40.232 118.317 40.616C117.709 40.9893 116.898 41.176 115.885 41.176C114.818 41.176 113.89 40.984 113.101 40.6V39.736C113.88 40.1413 114.776 40.344 115.789 40.344C117.474 40.344 118.317 39.848 118.317 38.856C118.317 38.3867 118.136 38.0453 117.773 37.832C117.41 37.6187 116.989 37.512 116.509 37.512H114.717V36.68H116.509C117.608 36.6267 118.157 36.2107 118.157 35.432C118.157 34.952 117.938 34.5893 117.501 34.344C117.074 34.0987 116.514 33.976 115.821 33.976C114.904 33.976 114.034 34.168 113.213 34.552V33.704C114.088 33.32 114.989 33.128 115.917 33.128C116.898 33.128 117.666 33.3253 118.221 33.72C118.786 34.104 119.069 34.6373 119.069 35.32C119.069 35.7787 118.936 36.1627 118.669 36.472C118.413 36.7707 118.056 36.968 117.597 37.064C118.056 37.1813 118.44 37.4053 118.749 37.736C119.069 38.0667 119.229 38.472 119.229 38.952ZM125.464 41H121.24V33.32H125.304C126.008 33.32 126.574 33.5013 127 33.864C127.438 34.216 127.656 34.712 127.656 35.352C127.656 35.768 127.55 36.1307 127.336 36.44C127.123 36.7493 126.84 36.9627 126.488 37.08C126.894 37.1867 127.23 37.3947 127.496 37.704C127.774 38.0133 127.912 38.4187 127.912 38.92C127.912 39.5707 127.694 40.0827 127.256 40.456C126.83 40.8187 126.232 41 125.464 41ZM122.136 37.512V40.2H125.32C126.44 40.2 127 39.7573 127 38.872C127 37.9653 126.462 37.512 125.384 37.512H122.136ZM122.136 34.12V36.712H125.224C126.227 36.712 126.728 36.2853 126.728 35.432C126.728 34.9947 126.584 34.6693 126.296 34.456C126.019 34.232 125.651 34.12 125.192 34.12H122.136ZM130.743 41H129.959V33.32H130.871V39.544L136.071 33.32H136.855V41H135.959V34.776L130.743 41ZM142.246 41H141.334V34.168H138.358V33.32H145.222V34.168H142.246V41ZM147.509 41H146.725V33.32H147.637V39.544L152.837 33.32H153.621V41H152.725V34.776L147.509 41ZM156.467 41H155.395L157.683 38.056C157.075 37.9067 156.601 37.624 156.259 37.208C155.918 36.792 155.747 36.3013 155.747 35.736C155.747 35.0427 156.003 34.4667 156.515 34.008C157.027 33.5493 157.726 33.32 158.611 33.32H162.275V41H161.363V38.152H158.659L156.467 41ZM157.187 34.568C156.835 34.856 156.659 35.2453 156.659 35.736C156.659 36.2267 156.841 36.616 157.203 36.904C157.566 37.192 158.062 37.336 158.691 37.336H161.379V34.136H158.691C158.051 34.136 157.55 34.28 157.187 34.568Z" fill="#161616"/>
<path d="M25.5164 7.89326V7.8526C24.3812 5.81041 22.7831 4.10472 20.8687 2.89198C19.2255 1.85588 17.3897 1.21519 15.4899 1.0148C15.0512 0.947031 14.6061 0.947031 14.161 0.947031C11.8102 0.944076 9.50196 1.61591 7.47879 2.89198C5.56339 4.10566 3.96343 5.81102 2.82475 7.8526C1.62755 10.009 0.997236 12.4693 1.00001 14.975V29.003H27.3221V14.975C27.3235 12.485 26.7 10.04 25.5164 7.89326ZM14.924 27.0513C14.6697 27.0513 14.4154 27.0513 14.161 27.0513C13.9067 27.0513 13.6524 27.0513 13.3981 27.0513H2.82475V15.7882C2.82475 15.5172 2.82475 14.4329 2.82475 14.1618V13.9992C3.04832 11.1054 4.23826 8.39319 6.17841 6.35507C8.11857 4.31695 10.6802 3.08818 13.3981 2.89198C13.6524 2.89198 13.9067 2.89198 14.161 2.89198C14.4154 2.89198 14.6697 2.89198 14.924 2.89198C17.6654 3.0931 20.2458 4.34522 22.1883 6.41689C24.1307 8.48855 25.3039 11.2397 25.491 14.1618C25.491 14.4329 25.491 14.704 25.491 14.975C25.491 15.2461 25.491 15.5172 25.491 15.7882V27.0513H14.924Z" fill="#161616"/>
<path d="M51.1597 13.9992H60.1054C60.3442 14.0014 60.5726 14.1036 60.7412 14.2838C60.869 14.4195 60.9563 14.5923 60.9922 14.7807C61.0281 14.969 61.0111 15.1645 60.9432 15.3426C60.8752 15.5206 60.7595 15.6734 60.6105 15.7816C60.4614 15.8898 60.2857 15.9487 60.1054 15.9509H51.1597C51.3818 18.8422 52.5698 21.5527 54.5077 23.5896C56.4456 25.6266 59.0049 26.8549 61.7203 27.0513C61.9683 27.0513 62.2226 27.0513 62.4833 27.0513C62.744 27.0513 62.9919 27.0513 63.2399 27.0513H67.1628V29.003H62.4833C60.1296 29.0061 57.8187 28.3318 55.7947 27.0513C53.8236 25.8123 52.1898 24.0467 51.0547 21.9288C49.9196 19.8109 49.3225 17.4141 49.3223 14.975C49.3195 12.4693 49.9498 10.009 51.147 7.85259C52.2822 5.81041 53.8803 4.10472 55.7947 2.89197C57.8205 1.61659 60.1305 0.944855 62.4833 0.947027H67.1628V2.89197H63.2399C62.9919 2.89197 62.7376 2.89197 62.4833 2.89197C62.229 2.89197 61.9683 2.89197 61.7203 2.89197C59.0048 3.09129 56.4461 4.32143 54.5086 6.35926C52.5711 8.39708 51.3829 11.1076 51.1597 13.9992Z" fill="#161616"/>
<path d="M114.652 0.947021V29.003H112.783V2.9394H91.0318V29.003H89.1626V0.947021H101.84C102.095 0.947021 101.084 0.947021 101.344 0.947021C101.556 0.961154 101.769 0.961154 101.98 0.947021H114.652Z" fill="#161616"/>
<path d="M149.652 30.772V30.9346C149.658 30.8804 149.658 30.8398 149.652 30.772ZM149.652 30.772V30.9346C149.658 30.8804 149.658 30.8398 149.652 30.772ZM149.652 28.9829V29.1456C149.652 29.0913 149.652 29.0371 149.652 28.9829ZM149.652 30.9346C149.652 30.8804 149.652 30.8262 149.652 30.772V30.9346ZM149.652 30.772V30.9346C149.658 30.8804 149.658 30.8398 149.652 30.772Z" fill="#161616"/>
<path d="M161.19 7.89326V7.85259C160.055 5.81041 158.457 4.10472 156.542 2.89197C154.889 1.85119 153.042 1.21034 151.131 1.01479C150.699 0.974134 150.254 0.947027 149.809 0.947027C147.456 0.944855 145.146 1.61659 143.12 2.89197C141.206 4.10472 139.608 5.81041 138.473 7.85259C137.281 10.0086 136.652 12.4656 136.652 14.9682C136.652 17.4709 137.281 19.9278 138.473 22.0839C139.606 24.1256 141.205 25.8294 143.12 27.0377C145.142 28.3112 147.448 28.9829 149.796 28.9829C152.145 28.9829 154.45 28.3112 156.472 27.0377C158.388 25.8294 159.986 24.1256 161.12 22.0839V22.0432C162.302 19.8958 162.925 17.4512 162.925 14.9615C162.925 12.4717 162.302 10.0271 161.12 7.8797L161.19 7.89326ZM161.19 15.7882C161.003 18.7096 159.829 21.4599 157.887 23.5305C155.944 25.601 153.364 26.8517 150.623 27.0513C150.369 27.0513 150.114 27.0513 149.86 27.0513C149.606 27.0513 149.345 27.0513 149.097 27.0513C146.381 26.8549 143.822 25.6266 141.884 23.5896C139.946 21.5527 138.758 18.8422 138.536 15.9509V15.7882C138.536 15.5172 138.536 15.2461 138.536 14.975C138.536 14.7039 138.536 14.4329 138.536 14.1618V13.9992C138.758 11.1173 139.938 8.41456 141.864 6.37805C143.789 4.34154 146.334 3.10524 149.04 2.89197C149.288 2.89197 149.542 2.89197 149.803 2.89197C150.063 2.89197 150.311 2.89197 150.566 2.89197C153.307 3.09449 155.886 4.34706 157.828 6.41845C159.771 8.48983 160.944 11.2402 161.133 14.1618C161.133 14.4329 161.133 14.7039 161.133 14.975C161.133 15.2461 161.152 15.5172 161.133 15.7882H161.19Z" fill="#161616"/>
</svg>
