<svg width="65" height="65" viewBox="0 0 65 65" fill="none" xmlns="http://www.w3.org/2000/svg">
<circle cx="32.5" cy="32.5" r="32.5" fill="#B9BED1"/>
<g clip-path="url(#clip0_230_111)">
<path d="M33.7604 16V16.0633C33.3416 16.0211 32.9209 16 32.5 16C30.266 15.9973 28.0725 16.5981 26.1507 17.7391C24.332 18.8187 22.8138 20.3395 21.7361 22.1614C20.5971 24.0866 19.9973 26.2838 20 28.5217V48H21.7361V41.0435H43.2639V48H45V16H33.7604ZM43.2639 27.7969C43.2799 28.0362 43.2882 28.2783 43.2882 28.5217C43.2882 28.7652 43.2799 29.0087 43.2639 29.2466V39.3044H33.2236C32.9847 39.3204 32.7431 39.3287 32.5 39.3287C32.257 39.3287 32.0139 39.3204 31.7764 39.3044H21.7361V29.2466C21.7201 29.0073 21.7118 28.7652 21.7118 28.5217C21.7118 28.2783 21.7201 28.0348 21.7361 27.7969V27.6522H21.7465C22.1708 22.3374 26.4514 18.0939 31.7764 17.7391C32.0153 17.7231 32.257 17.7148 32.5 17.7148C32.7431 17.7148 32.9861 17.7231 33.2236 17.7391H43.2639V27.7969Z" fill="white"/>
<path d="M38.8493 39.3044C40.668 38.2248 42.1862 36.7039 43.2639 34.8821L43.2882 34.8411C44.4091 32.9244 45 30.7431 45 28.5217C45 26.3004 44.4091 24.1191 43.2882 22.2024L43.2639 22.1614C42.1862 20.3395 40.668 18.8187 38.8493 17.7391C37.2952 16.8163 35.5587 16.2444 33.7611 16.0633C33.3421 16.0211 32.9212 16 32.5 16C30.266 15.9973 28.0725 16.5981 26.1507 17.7391C24.332 18.8187 22.8138 20.3395 21.7361 22.1614C20.5996 24.0877 20 26.2842 20 28.5217C20 30.7593 20.5996 32.9558 21.7361 34.8821C22.8138 36.7039 24.332 38.2248 26.1507 39.3044H20V48H21.7361V41.0435H43.2639V48H45V39.3044H38.8493ZM32.5 39.3287C32.2569 39.3287 32.0139 39.3204 31.7764 39.3044C26.4514 38.9496 22.1708 34.7061 21.7465 29.3913C21.7465 29.3913 21.7118 28.7652 21.7118 28.5217C21.7118 28.2783 21.7465 27.6522 21.7465 27.6522C22.1708 22.3374 26.4514 18.0939 31.7764 17.7391C32.0153 17.7231 32.2569 17.7148 32.5 17.7148C32.7431 17.7148 32.9861 17.7231 33.2236 17.7391C38.5972 18.0967 42.9069 22.4139 43.2639 27.7969C43.2799 28.0362 43.2882 28.2783 43.2882 28.5217C43.2882 28.7652 43.2799 29.0087 43.2639 29.2466C42.9069 34.6296 38.5972 38.9468 33.2236 39.3044C32.9861 39.3204 32.7431 39.3287 32.5 39.3287Z" fill="white"/>
<path d="M21.7361 29.2467V29.3914H21.7465C21.7424 29.3434 21.7361 29.2947 21.7361 29.2467ZM21.7361 29.2467V29.3914H21.7465C21.7424 29.3434 21.7361 29.2947 21.7361 29.2467ZM21.7361 27.6522V27.7969C21.7361 27.7489 21.7424 27.7002 21.7465 27.6522H21.7361ZM21.7361 29.3914H21.7465C21.7424 29.3434 21.7389 29.2947 21.7361 29.2467V29.3914ZM21.7361 29.2467V29.3914H21.7465C21.7424 29.3434 21.7361 29.2947 21.7361 29.2467Z" fill="white"/>
<path d="M43.2882 22.2024L43.2639 22.1614C42.1861 20.3395 40.668 18.8187 38.8493 17.7391C37.2951 16.8163 35.5587 16.2444 33.7611 16.0633C33.342 16.0211 32.9211 16 32.5 16C30.266 15.9973 28.0725 16.5981 26.1507 17.7391C24.332 18.8187 22.8138 20.3395 21.7361 22.1614C20.5996 24.0877 20 26.2842 20 28.5217C20 30.7593 20.5996 32.9558 21.7361 34.8821C22.8138 36.7039 24.332 38.2248 26.1507 39.3044C28.0736 40.4429 30.2663 41.0435 32.5 41.0435C34.7337 41.0435 36.9264 40.4429 38.8493 39.3044C40.668 38.2248 42.1861 36.7039 43.2639 34.8821L43.2882 34.8411C44.4091 32.9244 44.9999 30.7431 44.9999 28.5217C44.9999 26.3004 44.4091 24.1191 43.2882 22.2024ZM43.2639 29.2466C42.9069 34.6296 38.5972 38.9468 33.2236 39.3044C32.9847 39.3204 32.743 39.3287 32.5 39.3287C32.2569 39.3287 32.0139 39.3204 31.7764 39.3044C26.4514 38.9496 22.1708 34.7061 21.7465 29.3913H21.7361V29.2466C21.7201 29.0073 21.7118 28.7652 21.7118 28.5217C21.7118 28.2783 21.7201 28.0348 21.7361 27.7969V27.6522H21.7465C22.1708 22.3374 26.4514 18.0939 31.7764 17.7391C32.0153 17.7231 32.2569 17.7148 32.5 17.7148C32.743 17.7148 32.9861 17.7231 33.2236 17.7391C38.5972 18.0967 42.9069 22.4139 43.2639 27.7969C43.2798 28.0362 43.2882 28.2783 43.2882 28.5217C43.2882 28.7652 43.2798 29.0087 43.2639 29.2466Z" fill="white"/>
<path d="M21.7465 27.6522H30.243C30.4733 27.6522 30.6941 27.7438 30.8569 27.9069C31.0196 28.0699 31.1111 28.2911 31.1111 28.5217C31.1111 28.7524 31.0196 28.9735 30.8569 29.1366C30.6941 29.2997 30.4733 29.3913 30.243 29.3913H21.7465C22.1708 34.7061 26.4514 38.9496 31.7764 39.3044C32.0153 39.3204 32.2569 39.3287 32.5 39.3287C32.743 39.3287 32.9861 39.3204 33.2236 39.3044H45V41.0435H32.5C30.2659 41.0465 28.0724 40.4457 26.1507 39.3044C24.3318 38.2249 22.8136 36.7041 21.7361 34.8821C20.5996 32.9558 20 30.7593 20 28.5217C20 26.2842 20.5996 24.0877 21.7361 22.1614C22.8138 20.3395 24.332 18.8187 26.1507 17.7391C28.0725 16.5981 30.266 15.9973 32.5 16C32.9209 16 33.3416 16.0211 33.7604 16.0633V16H45V17.7391H33.2236C32.9847 17.7231 32.743 17.7148 32.5 17.7148C32.2569 17.7148 32.0139 17.7231 31.7764 17.7391C26.4514 18.0939 22.1708 22.3374 21.7465 27.6522Z" fill="white"/>
<path d="M45 39.3043V48H43.2639V41.0435H21.7361V48H20V39.3043H31.7764C32.0153 39.3203 32.2569 39.3287 32.5 39.3287C32.7431 39.3287 32.9861 39.3203 33.2236 39.3043H45Z" fill="white"/>
</g>
<defs>
<clipPath id="clip0_230_111">
<rect width="25" height="32" fill="white" transform="translate(20 16)"/>
</clipPath>
</defs>
</svg>
