<svg width="24" height="24" viewBox="0 0 24 24" fill="none" xmlns="http://www.w3.org/2000/svg">
<g clip-path="url(#clip0_8_2340)">
<path d="M8 3V19C8 21.2 9.8 23 12 23H16.3C17.4 23 18.4 22.6 19.1 21.8L21.8 19.1C22.6 18.3 23 17.3 23 16.3V11C23 9.9 22.1 9 21 9H13V4C13 2.3 11.7 1 10 1C8.9 1 8 1.9 8 3Z" stroke="#A8A8A8" stroke-width="1.5" stroke-miterlimit="10" stroke-linecap="round" stroke-linejoin="round"/>
<path d="M3 23H8V9H3C1.9 9 1 9.9 1 11V21C1 22.1 1.9 23 3 23Z" stroke="#A8A8A8" stroke-width="1.5" stroke-miterlimit="10" stroke-linecap="round" stroke-linejoin="round"/>
</g>
<defs>
<clipPath id="clip0_8_2340">
<rect width="24" height="24" fill="white"/>
</clipPath>
</defs>
</svg>
