<svg width="166" height="26" viewBox="0 0 166 26" fill="none" xmlns="http://www.w3.org/2000/svg">
<path d="M25.6003 6.64547V6.60954C24.4433 4.8049 22.8145 3.29761 20.8634 2.22592C19.1887 1.31034 17.3176 0.744182 15.3813 0.567096C14.9341 0.507211 14.4805 0.507211 14.0269 0.507211C11.631 0.504599 9.27844 1.09829 7.21643 2.22592C5.26426 3.29844 3.63359 4.80543 2.47306 6.60954C1.25288 8.51516 0.610465 10.6893 0.613291 12.9035V25.2998H27.4406V12.9035C27.442 10.7032 26.8066 8.54248 25.6003 6.64547ZM14.8045 23.5751C14.5453 23.5751 14.2861 23.5751 14.0269 23.5751C13.7677 23.5751 13.5085 23.5751 13.2493 23.5751H2.47306V13.6221C2.47306 13.3826 2.47306 12.4244 2.47306 12.1849V12.0412C2.70092 9.48403 3.9137 7.08725 5.89109 5.2862C7.86849 3.48515 10.4793 2.39931 13.2493 2.22592C13.5085 2.22592 13.7677 2.22592 14.0269 2.22592C14.2861 2.22592 14.5453 2.22592 14.8045 2.22592C17.5986 2.40366 20.2285 3.51013 22.2083 5.34083C24.188 7.17153 25.3837 9.60267 25.5743 12.1849C25.5743 12.4244 25.5743 12.664 25.5743 12.9035C25.5743 13.1431 25.5743 13.3826 25.5743 13.6221V23.5751H14.8045Z" fill="#161616"/>
<path d="M51.7353 12.0412H60.8527C61.096 12.0431 61.3288 12.1334 61.5007 12.2927C61.6309 12.4126 61.7199 12.5653 61.7565 12.7318C61.7931 12.8982 61.7757 13.071 61.7065 13.2283C61.6373 13.3857 61.5193 13.5206 61.3674 13.6162C61.2155 13.7119 61.0365 13.7639 60.8527 13.7659H51.7353C51.9616 16.3209 53.1724 18.7161 55.1475 20.5161C57.1226 22.3161 59.731 23.4016 62.4986 23.5751C62.7513 23.5751 63.0105 23.5751 63.2762 23.5751C63.5419 23.5751 63.7946 23.5751 64.0473 23.5751H68.0455V25.2998H63.2762C60.8773 25.3026 58.5221 24.7067 56.4592 23.5751C54.4503 22.4802 52.7851 20.92 51.6282 19.0485C50.4714 17.1769 49.8628 15.0589 49.8626 12.9035C49.8597 10.6893 50.5021 8.51515 51.7223 6.60954C52.8793 4.80489 54.5081 3.2976 56.4592 2.22592C58.5239 1.09889 60.8783 0.505287 63.2762 0.507207H68.0455V2.22592H64.0473C63.7946 2.22592 63.5354 2.22592 63.2762 2.22592C63.017 2.22592 62.7513 2.22592 62.4986 2.22592C59.7309 2.40206 57.1232 3.48911 55.1484 5.2899C53.1737 7.09069 51.9628 9.48594 51.7353 12.0412Z" fill="#161616"/>
<path d="M116.446 0.507202V25.2998H114.541V2.26784H92.3729V25.2998H90.4678V0.507202H103.389C103.648 0.507202 102.618 0.507202 102.883 0.507202C103.099 0.51969 103.316 0.51969 103.532 0.507202H116.446Z" fill="#161616"/>
<path d="M163.878 6.64547V6.60954C162.721 4.80489 161.092 3.2976 159.141 2.22592C157.456 1.3062 155.574 0.739892 153.626 0.567092C153.186 0.531161 152.732 0.507207 152.278 0.507207C149.88 0.505287 147.526 1.09889 145.461 2.22592C143.51 3.2976 141.881 4.80489 140.724 6.60954C139.509 8.5148 138.869 10.686 138.869 12.8975C138.869 15.109 139.509 17.2802 140.724 19.1855C141.88 20.9897 143.509 22.4954 145.461 23.5631C147.522 24.6884 149.872 25.2821 152.265 25.2821C154.659 25.2821 157.009 24.6884 159.069 23.5631C161.022 22.4954 162.651 20.9897 163.806 19.1855V19.1496C165.011 17.2519 165.646 15.0917 165.646 12.8915C165.646 10.6914 165.011 8.53111 163.806 6.63349L163.878 6.64547ZM163.878 13.6221C163.687 16.2037 162.491 18.6341 160.511 20.4638C158.531 22.2935 155.901 23.3988 153.108 23.5751C152.849 23.5751 152.589 23.5751 152.33 23.5751C152.071 23.5751 151.805 23.5751 151.553 23.5751C148.785 23.4016 146.177 22.3161 144.202 20.5161C142.226 18.7161 141.016 16.3209 140.789 13.7659V13.6221C140.789 13.3826 140.789 13.143 140.789 12.9035C140.789 12.664 140.789 12.4244 140.789 12.1849V12.0412C141.015 9.49451 142.218 7.10614 144.18 5.30651C146.143 3.50688 148.737 2.41438 151.494 2.22592C151.747 2.22592 152.006 2.22592 152.272 2.22592C152.538 2.22592 152.79 2.22592 153.049 2.22592C155.843 2.40489 158.472 3.51176 160.452 5.34221C162.431 7.17266 163.627 9.6031 163.819 12.1849C163.819 12.4244 163.819 12.664 163.819 12.9035C163.819 13.143 163.839 13.3826 163.819 13.6221H163.878Z" fill="#161616"/>
</svg>
